<?xml version="1.0" encoding="UTF-8" standalone="no"?>

    
<!-- Created with Inkscape (http://www.inkscape.org/) -->

<svg xmlns:dc="http://purl.org/dc/elements/1.1/" 
    xmlns:cc="http://creativecommons.org/ns#"
    xmlns:rdf="http://www.w3.org/1999/02/22-rdf-syntax-ns#" 
    xmlns:svg="http://www.w3.org/2000/svg"
    xmlns="http://www.w3.org/2000/svg" 
    xmlns:xlink="http://www.w3.org/1999/xlink"
    width="100%" height="100%" viewBox="0 0 2252.12 100" 
    >
<g transform="matrix(1,0,0,1,0,5)">
<path fill="rgb(57,111,182)" d="M28.86 102.18L89.31 102.18L89.31 128.96C89.31 129.48 89.83 130 90.48 130L113.75 130C114.40 130 115.18 129.74 115.57 129.22C116.09 128.70 116.48 128.05 116.48 127.27C116.35 116.48 116.35 75.53 116.35 42.90C116.35 19.24 97.11 0 73.32 0L45.63 0C21.97 0 2.73 19.24 2.73 42.90C2.60 75.53 2.60 116.48 2.60 127.27C2.60 128.05 2.86 128.70 3.38 129.22C3.90 129.74 4.55 130 5.33 130L27.82 130C28.08 130 28.34 129.87 28.60 129.61C28.73 129.48 28.86 129.22 28.86 128.96ZM89.18 80.86L28.86 80.86L28.86 39.39C28.86 34.97 30.55 30.68 33.67 27.56C36.79 24.44 40.95 22.75 45.37 22.75L72.41 22.75C81.51 22.75 88.92 30.16 89.05 39.26ZM269.94 109.07L213.39 109.07C206.50 109.07 199.88 106.34 194.94 101.53C190.13 96.59 187.39 89.96 187.39 83.20L187.39 48.88C187.39 34.58 198.96 23.01 213.13 22.88C235.10 22.88 264.09 22.62 269.94 22.62C270.46 22.62 270.99 22.10 270.99 21.58L270.99 2.73C270.99 1.17 269.81 0 268.25 0L198.83 0C188.69 0 179.07 4.03 171.92 11.05C164.90 18.20 160.87 27.82 160.87 37.96L160.87 91.39C160.87 112.19 177.77 129.22 198.70 129.22C225.61 129.35 258.76 129.48 268.25 129.48C269.03 129.48 269.69 129.22 270.20 128.70C270.73 128.18 270.99 127.53 270.99 126.75L270.99 110.11C270.99 109.85 270.86 109.59 270.73 109.33C270.46 109.07 270.20 109.07 269.94 109.07ZM476.76 0L455.31 0C454.14 0 453.10 0.78 452.71 1.95C449.85 12.48 436.46 61.36 432.56 75.40C432.43 75.79 432.04 76.18 431.52 76.18C431.00 76.18 430.61 75.79 430.48 75.40C426.58 61.36 413.06 12.48 410.07 1.95C409.81 0.78 408.77 0 407.47 0L386.80 0C385.63 0 384.59 0.78 384.20 1.95C381.34 12.35 368.21 60.06 364.44 73.97C364.31 74.49 363.92 74.75 363.40 74.75C362.88 74.75 362.49 74.49 362.36 73.97C358.46 60.06 345.33 12.35 342.60 1.95C342.21 0.78 341.17 0 339.87 0L318.55 0C317.77 0 316.99 0.39 316.47 1.04C315.95 1.69 315.82 2.60 315.95 3.38C321.15 22.23 346.11 113.23 350.14 127.79C350.40 128.96 351.44 129.87 352.74 129.87L374.06 129.87C375.36 129.87 376.40 128.96 376.66 127.79C379.52 117.52 392.39 70.33 396.29 56.55C396.42 56.16 396.81 55.77 397.33 55.77C397.72 55.77 398.24 56.16 398.37 56.55C402.14 70.33 415.01 117.52 417.87 127.79C418.13 128.96 419.30 129.87 420.47 129.87L442.57 129.87C443.87 129.87 444.91 128.96 445.17 127.79C449.20 113.23 474.16 22.23 479.36 3.38C479.49 2.60 479.36 1.69 478.84 1.04C478.32 0.39 477.54 0 476.76 0ZM551.26 79.82L591.17 79.82C591.95 79.82 592.60 79.56 593.13 79.04C593.64 78.52 593.90 77.87 593.90 77.09L593.90 61.10C593.90 60.45 593.64 59.67 593.13 59.15C592.60 58.63 591.95 58.37 591.17 58.37L551.26 58.37C550.75 58.37 550.22 57.85 550.22 57.33L550.22 33.02C550.22 27.04 555.03 22.23 561.01 22.23C579.34 22.23 615.09 22.10 621.85 22.10C622.38 22.10 622.89 21.71 622.89 21.06L622.89 2.73C622.89 1.95 622.63 1.30 622.12 0.78C621.59 0.26 620.94 0 620.16 0C609.50 0 570.12 0.13 544.89 0.26C532.93 0.26 523.31 9.88 523.31 21.84L523.31 108.16C523.31 114.01 525.65 119.47 529.68 123.50C533.71 127.66 539.30 129.87 545.02 129.87C570.89 129.87 611.97 129.74 622.76 129.74C624.32 129.74 625.49 128.57 625.49 127.01L625.49 110.63C625.49 110.37 625.37 109.98 625.23 109.85C624.97 109.59 624.71 109.46 624.45 109.46L561.01 109.46C555.03 109.46 550.22 104.65 550.22 98.67L550.22 80.99C550.22 80.60 550.35 80.34 550.62 80.21C550.75 79.95 551.00 79.82 551.26 79.82ZM695.24 102.18L755.69 102.18L755.69 128.96C755.69 129.48 756.21 130 756.86 130L780.13 130C780.78 130 781.56 129.74 781.95 129.22C782.47 128.70 782.86 128.05 782.86 127.27C782.73 116.48 782.73 75.53 782.73 42.90C782.73 19.24 763.49 0 739.70 0L712.01 0C688.35 0 669.11 19.24 669.11 42.90C668.98 75.53 668.98 116.48 668.98 127.27C668.98 128.05 669.24 128.70 669.76 129.22C670.28 129.74 670.93 130 671.71 130L694.20 130C694.46 130 694.72 129.87 694.98 129.61C695.11 129.48 695.24 129.22 695.24 128.96ZM755.56 80.86L695.24 80.86L695.24 39.39C695.24 34.97 696.93 30.68 700.05 27.56C703.17 24.44 707.33 22.75 711.75 22.75L738.79 22.75C747.89 22.75 755.30 30.16 755.43 39.26ZM869.18 22.75L869.18 127.27C869.18 127.92 869.44 128.70 869.96 129.09C870.48 129.61 871.13 130 871.91 130L893.62 130C894.27 130 895.05 129.61 895.57 129.09C896.09 128.70 896.35 127.92 896.35 127.27C896.35 111.54 896.22 33.02 896.22 22.88C896.22 22.49 896.35 22.23 896.61 22.10C896.74 21.84 897.13 21.71 897.39 21.71L935.22 21.71C936 21.71 936.65 21.45 937.17 20.93C937.69 20.41 937.95 19.76 937.95 18.98L937.95 2.73C937.95 1.95 937.69 1.30 937.17 0.78C936.65 0.26 936 0 935.22 0L830.18 0C828.62 0 827.45 1.30 827.45 2.73L827.45 18.98C827.45 20.54 828.62 21.71 830.18 21.71L868.14 21.71C868.40 21.71 868.66 21.84 868.92 22.10C869.05 22.23 869.18 22.49 869.18 22.75ZM1008.80 57.07L1008.80 1.04C1008.80 0.52 1008.28 0 1007.63 0L985.27 0C983.84 0 982.67 1.17 982.67 2.73C982.54 19.63 982.54 110.24 982.54 127.14C982.54 127.79 982.80 128.57 983.32 128.96C983.84 129.48 984.49 129.87 985.27 129.87L1007.76 129.87C1008.02 129.87 1008.28 129.74 1008.54 129.48C1008.67 129.35 1008.80 128.96 1008.80 128.70L1008.80 80.99C1008.80 80.73 1008.93 80.34 1009.06 80.21C1009.32 79.95 1009.58 79.82 1009.84 79.82L1068.60 79.82C1069.25 79.82 1069.77 80.34 1069.77 80.99C1069.77 87.49 1069.77 122.20 1069.90 128.70C1069.90 129.35 1070.29 129.87 1070.94 129.87L1094.21 129.87C1094.86 129.87 1095.64 129.48 1096.16 128.96C1096.68 128.57 1096.94 127.79 1096.94 127.14C1096.94 110.24 1096.81 19.63 1096.81 2.73C1096.81 1.17 1095.64 0 1094.08 0L1070.55 0C1070.29 0 1070.03 0.13 1069.77 0.26C1069.64 0.52 1069.51 0.78 1069.51 1.04C1069.51 8.32 1069.64 49.92 1069.64 57.07C1069.64 57.46 1069.51 57.72 1069.38 57.85C1069.12 58.11 1068.86 58.24 1068.60 58.24L1009.84 58.24C1009.32 58.24 1008.80 57.72 1008.80 57.07ZM1168.38 79.82L1208.28 79.82C1209.07 79.82 1209.71 79.56 1210.23 79.04C1210.75 78.52 1211.01 77.87 1211.01 77.09L1211.01 61.10C1211.01 60.45 1210.75 59.67 1210.23 59.15C1209.71 58.63 1209.07 58.37 1208.28 58.37L1168.38 58.37C1167.86 58.37 1167.34 57.85 1167.34 57.33L1167.34 33.02C1167.34 27.04 1172.14 22.23 1178.13 22.23C1196.45 22.23 1232.20 22.10 1238.96 22.10C1239.48 22.10 1240.00 21.71 1240.00 21.06L1240.00 2.73C1240.00 1.95 1239.74 1.30 1239.22 0.78C1238.70 0.26 1238.06 0 1237.27 0C1226.62 0 1187.22 0.13 1162.00 0.26C1150.05 0.26 1140.42 9.88 1140.42 21.84L1140.42 108.16C1140.42 114.01 1142.76 119.47 1146.80 123.50C1150.83 127.66 1156.41 129.87 1162.13 129.87C1188.00 129.87 1229.09 129.74 1239.88 129.74C1241.43 129.74 1242.61 128.57 1242.61 127.01L1242.61 110.63C1242.61 110.37 1242.47 109.98 1242.35 109.85C1242.09 109.59 1241.83 109.46 1241.57 109.46L1178.13 109.46C1172.14 109.46 1167.34 104.65 1167.34 98.67L1167.34 80.99C1167.34 80.60 1167.46 80.34 1167.72 80.21C1167.86 79.95 1168.12 79.82 1168.38 79.82ZM1331.22 81.38C1334.99 86.06 1369.44 128.96 1369.44 128.96C1369.96 129.61 1370.61 130 1371.52 130L1398.56 130C1399.60 130 1400.51 129.35 1401.03 128.44C1401.42 127.53 1401.29 126.36 1400.64 125.58C1400.64 125.58 1367.49 84.37 1365.02 81.25C1364.89 81.12 1364.89 81.12 1365.02 81.12L1365.02 80.99C1372.69 80.99 1380.10 78 1385.56 72.54C1391.02 67.08 1394.01 59.67 1394.01 52L1394.01 28.99C1394.01 13 1381.01 0 1365.02 0L1288.84 0C1287.28 0 1286.11 1.17 1286.11 2.73L1286.11 126.36C1286.11 127.92 1287.28 129.09 1288.84 129.09L1311.98 129.09C1312.24 129.09 1312.50 128.96 1312.76 128.83C1312.89 128.57 1313.02 128.31 1313.02 128.05C1313.02 121.55 1312.76 88.53 1312.76 82.03C1312.76 81.77 1312.89 81.51 1313.15 81.38C1313.28 81.12 1313.54 80.99 1313.93 80.99L1330.44 80.99C1330.83 80.99 1331.09 81.12 1331.22 81.38ZM1367.36 37.05C1367.36 39.78 1367.36 42.77 1367.23 45.50C1367.23 53.04 1361.12 59.15 1353.58 59.15L1313.80 59.15C1313.54 59.15 1313.28 59.02 1313.15 58.89C1312.89 58.63 1312.76 58.37 1312.76 58.11C1312.76 52.78 1312.89 29.64 1312.89 24.31C1312.89 23.79 1313.41 23.27 1313.93 23.27L1353.58 23.27C1357.22 23.27 1360.73 24.70 1363.33 27.30C1365.93 29.90 1367.36 33.41 1367.36 37.05ZM1445.67 36.79L1445.67 43.16C1445.67 62.92 1461.27 79.17 1481.03 79.95C1491.56 80.34 1502.61 80.86 1510.67 81.25C1517.82 81.51 1523.28 87.36 1523.28 94.38C1523.28 101.66 1517.30 107.64 1510.02 107.64L1488.96 107.64C1488.96 107.64 1480.25 107.51 1479.21 107.51L1478.95 107.51L1448.53 107.51C1447.75 107.51 1447.10 107.90 1446.58 108.42C1446.06 108.94 1445.80 109.59 1445.80 110.37C1446.06 114.66 1446.45 122.98 1446.58 127.14C1446.71 128.57 1447.88 129.74 1449.31 129.74L1514.70 129.74C1534.33 129.74 1550.32 113.75 1550.32 94.12C1550.32 75.14 1535.37 59.67 1516.39 58.89C1506.12 58.37 1495.46 57.98 1487.14 57.59C1478.95 57.33 1472.58 50.57 1472.58 42.38L1472.58 37.18C1472.58 28.86 1479.34 21.97 1487.79 21.97L1506.90 21.97L1515.74 21.97L1536.80 21.97C1537.58 21.97 1538.23 21.71 1538.75 21.19C1539.27 20.67 1539.53 20.02 1539.53 19.24C1539.53 15.08 1539.53 6.89 1539.40 2.73C1539.40 1.17 1538.23 0 1536.80 0L1482.46 0C1462.18 0 1445.67 16.51 1445.67 36.79ZM1594.78 71.11L1594.78 126.75C1594.78 127.53 1595.04 128.18 1595.56 128.70C1596.08 129.22 1596.73 129.48 1597.51 129.48L1672.91 129.48C1692.67 129.48 1708.66 113.49 1708.66 93.73L1708.66 89.18C1708.66 76.31 1701.90 65 1691.76 58.76C1695.92 52.78 1698.26 45.63 1698.26 38.22L1698.26 35.75C1698.26 26.26 1694.49 17.16 1687.73 10.53C1681.10 3.77 1672.00 0 1662.51 0C1641.19 0 1607.13 0.26 1597.51 0.26C1595.95 0.26 1594.78 1.56 1594.78 2.99ZM1665.11 109.33L1622.08 109.33C1621.82 109.33 1621.43 109.20 1621.30 109.07C1621.04 108.81 1620.91 108.55 1620.91 108.29L1620.91 81.90C1620.91 81.51 1621.04 81.25 1621.30 81.12C1621.43 80.86 1621.82 80.73 1622.08 80.73C1624.81 80.80 1632.48 80.83 1641.01 80.83C1649.54 80.83 1658.93 80.80 1665.11 80.73C1665.16 80.73 1665.21 80.73 1665.26 80.73C1676.74 80.73 1682.41 87.79 1682.41 94.89C1682.41 102.09 1676.59 109.33 1665.11 109.33ZM1659.00 58.37C1657.57 58.37 1628.06 58.63 1622.08 58.63C1621.82 58.63 1621.43 58.50 1621.30 58.37C1621.04 58.11 1620.91 57.85 1620.91 57.59L1620.91 23.79C1620.91 23.53 1621.04 23.27 1621.30 23.14C1621.43 22.88 1621.82 22.75 1622.08 22.75L1659.00 22.75C1667.06 22.75 1673.56 32.50 1673.56 40.56L1673.56 41.08C1673.56 49.14 1667.06 58.37 1659.00 58.37ZM1805.83 44.85C1801.41 37.44 1781.52 4.94 1778.79 0.52C1778.53 0.26 1778.27 0 1777.88 0L1757.08 0C1756.04 0 1755.13 0.52 1754.61 1.43C1754.22 2.21 1754.22 3.25 1754.74 4.16C1763.19 17.55 1789.32 58.89 1792.83 64.61C1793.22 65.13 1793.35 65.65 1793.35 66.04L1793.35 126.75C1793.35 128.31 1794.52 129.48 1795.95 129.48L1817.53 129.48C1818.31 129.48 1818.96 129.22 1819.48 128.70C1820.00 128.18 1820.26 127.53 1820.26 126.75L1820.26 66.17C1820.26 65.65 1820.39 65.13 1820.65 64.74C1824.29 59.02 1850.42 17.55 1858.87 4.16C1859.39 3.25 1859.39 2.21 1859.00 1.43C1858.48 0.52 1857.57 0 1856.53 0L1835.73 0C1835.34 0 1835.08 0.26 1834.82 0.52C1832.09 4.94 1812.20 37.44 1807.78 44.85C1807.52 45.11 1807.13 45.37 1806.87 45.37C1806.48 45.37 1806.09 45.11 1805.83 44.85ZM1908.79 104L1960.79 104L1960.79 34.71L1908.79 34.71ZM1915.29 97.50L1915.29 41.21L1954.29 41.21L1954.29 97.50ZM2033.40 0L2011.82 0C2010.39 0 2009.22 1.17 2009.22 2.73C2009.09 19.63 2009.09 110.24 2009.09 127.14C2009.09 127.79 2009.35 128.57 2009.87 128.96C2010.39 129.48 2011.04 129.87 2011.82 129.87L2033.40 129.87C2034.18 129.87 2034.83 129.48 2035.35 128.96C2035.87 128.57 2036.13 127.79 2036.13 127.14L2036.13 2.73C2036.13 1.17 2034.96 0 2033.40 0ZM2080.78 54.99L2080.78 74.62C2080.78 105.04 2105.35 129.61 2135.77 129.61L2155.27 129.61C2185.69 129.61 2210.26 105.04 2210.26 74.62L2210.26 54.99C2210.26 24.57 2185.69 0 2155.27 0L2135.77 0C2105.35 0 2080.78 24.57 2080.78 54.99ZM2183.48 61.23L2183.48 71.50C2183.48 81.51 2179.45 91.13 2172.43 98.28C2165.28 105.43 2155.66 109.46 2145.52 109.46C2135.38 109.46 2125.76 105.43 2118.61 98.28C2111.59 91.13 2107.56 81.51 2107.56 71.50L2107.56 61.23C2107.56 51.22 2111.59 41.47 2118.61 34.45C2125.76 27.30 2135.38 23.27 2145.52 23.27C2155.66 23.27 2165.28 27.30 2172.43 34.45C2179.45 41.47 2183.48 51.22 2183.48 61.23Z"/>
</g>
</svg>